<svg width="1553" height="381" viewBox="0 0 1553 381" fill="none" xmlns="http://www.w3.org/2000/svg">
<path d="M444.782 255.79C440.461 255.79 435.237 255.703 429.108 255.531C422.979 255.416 416.7 255.069 410.27 254.493C403.94 253.916 398.113 252.964 392.788 251.637C387.563 250.312 383.595 248.494 380.882 246.188C378.773 244.342 377.315 242.497 376.512 240.651C375.808 238.749 375.457 236.729 375.457 234.595C375.457 227.56 376.712 220.581 379.224 213.661C381.836 206.682 384.8 199.762 388.116 192.9C391.431 185.978 394.346 179.058 396.857 172.138C399.469 165.217 400.775 158.21 400.775 151.116C400.775 146.848 399.921 142.638 398.213 138.486C396.605 134.276 394.043 130.296 390.527 126.548C403.689 125.683 416.901 124.962 430.163 124.385C443.425 123.751 456.687 123.434 469.949 123.434C475.676 123.434 482.608 123.664 490.746 124.126C498.985 124.529 507.474 125.279 516.216 126.375C524.957 127.471 533.094 129.028 540.629 131.046C548.266 133.065 554.444 135.631 559.167 138.745C563.99 141.86 566.4 145.666 566.4 150.164C566.4 154.259 564.692 158.008 561.276 161.411C557.86 164.814 553.44 167.898 548.014 170.667C542.589 173.377 536.762 175.741 530.532 177.76C524.404 179.721 518.577 181.337 513.051 182.605C519.682 183.065 526.664 183.844 533.998 184.94C541.433 185.978 548.316 187.535 554.645 189.611C561.075 191.63 566.299 194.254 570.319 197.483C574.338 200.714 576.346 204.692 576.346 209.421C576.346 216.574 573.333 222.772 567.305 228.022C561.376 233.27 553.54 237.681 543.794 241.257C534.048 244.832 523.298 247.688 511.543 249.821C499.889 251.955 488.235 253.483 476.58 254.406C464.926 255.328 454.326 255.79 444.782 255.79ZM432.574 137.188C431.871 144.801 429.912 152.327 426.697 159.767C423.482 167.149 420.216 174.53 416.901 181.912C423.833 181.855 432.424 181.596 442.671 181.134C453.019 180.673 463.719 179.922 474.772 178.884C485.823 177.79 496.172 176.289 505.816 174.387C515.562 172.426 523.45 169.947 529.478 166.946C535.606 163.891 538.671 160.17 538.671 155.787C538.671 152.385 536.812 149.501 533.094 147.137C529.478 144.772 524.705 142.84 518.778 141.341C512.95 139.841 506.67 138.688 499.939 137.88C493.208 137.015 486.677 136.439 480.348 136.15C474.119 135.804 468.844 135.631 464.523 135.631C459.199 135.631 453.823 135.689 448.398 135.804C443.074 135.919 437.798 136.381 432.574 137.188ZM411.928 239.527C416.951 240.103 423.432 240.622 431.368 241.084C439.306 241.545 447.845 241.776 456.988 241.776C467.237 241.776 477.635 241.285 488.184 240.305C498.834 239.268 508.58 237.711 517.422 235.633C526.363 233.5 533.547 230.761 538.973 227.415C544.498 224.013 547.26 219.947 547.26 215.218C547.26 211.123 544.899 207.663 540.178 204.837C535.556 201.953 529.528 199.618 522.093 197.83C514.759 196.042 506.873 194.658 498.432 193.678C490.093 192.697 482.056 192.034 474.319 191.689C466.583 191.285 460.153 191.082 455.029 191.082C447.795 191.082 440.611 191.256 433.478 191.601C426.345 191.948 419.212 192.409 412.078 192.986C410.47 197.311 409.114 201.637 408.009 205.962C407.005 210.287 406.502 214.67 406.502 219.11C406.502 222.514 406.904 225.917 407.708 229.319C408.612 232.722 410.019 236.124 411.928 239.527ZM698.418 257.174C678.726 257.174 661.194 255.098 645.822 250.946C630.45 246.736 618.343 240.565 609.501 232.433C600.761 224.243 596.391 214.238 596.391 202.415C596.391 190.881 600.31 180.297 608.146 170.667C616.082 160.978 626.884 152.587 640.547 145.493C654.312 138.399 670.036 132.921 687.718 129.057C705.502 125.135 724.189 123.174 743.781 123.174C763.574 123.174 781.106 125.308 796.378 129.576C811.749 133.786 823.805 139.985 832.546 148.175C841.388 156.306 845.808 166.284 845.808 178.106C845.808 189.64 841.839 200.252 833.903 209.94C826.067 219.572 815.265 227.934 801.502 235.028C787.837 242.064 772.113 247.514 754.331 251.378C736.647 255.242 718.011 257.174 698.418 257.174ZM723.587 242.208C742.877 242.208 759.455 239.757 773.318 234.855C787.284 229.953 797.984 223.293 805.419 214.872C812.954 206.395 816.722 196.878 816.722 186.325C816.722 174.906 812.302 165.678 803.46 158.642C794.618 151.606 782.763 146.473 767.894 143.244C753.124 139.956 736.697 138.313 718.612 138.313C699.525 138.313 682.997 140.735 669.032 145.58C655.166 150.424 644.466 157.027 636.931 165.389C629.396 173.695 625.628 183.124 625.628 193.678C625.628 204.981 629.999 214.209 638.739 221.36C647.581 228.512 659.436 233.789 674.306 237.192C689.175 240.536 705.603 242.208 723.587 242.208ZM894.939 255.184C888.81 255.184 884.187 254.261 881.074 252.416C877.959 250.572 875.848 248.235 874.744 245.409C873.639 242.584 873.086 239.757 873.086 236.932C873.086 229.723 874.291 222.6 876.704 215.563C879.216 208.528 882.078 201.522 885.294 194.543C888.509 187.506 891.321 180.471 893.733 173.435C896.244 166.341 897.501 159.161 897.501 151.895C897.501 147.742 896.747 143.59 895.24 139.437C893.733 135.285 890.92 131.479 886.801 128.018C890.016 126.692 893.432 125.567 897.048 124.645C900.766 123.664 904.633 123.174 908.652 123.174C918.298 123.174 926.788 124.645 934.122 127.586C941.557 130.469 948.037 134.218 953.562 138.832C959.089 143.388 963.912 148.203 968.031 153.279C972.25 158.296 975.918 162.939 979.032 167.206C985.061 175.337 990.89 183.009 996.514 190.218C1002.14 197.368 1008.47 204.202 1015.5 210.72C1022.64 217.179 1031.48 223.408 1042.03 229.405C1044.74 220.928 1048.06 212.537 1051.97 204.232C1055.89 195.926 1059.31 187.506 1062.22 178.972C1065.24 170.436 1066.64 161.583 1066.44 152.414C1066.34 148.088 1065.54 143.763 1064.03 139.437C1062.52 135.112 1059.61 131.133 1055.29 127.499C1057.9 126.634 1061.22 125.712 1065.24 124.731C1069.26 123.693 1072.77 123.174 1075.79 123.174C1080.41 123.174 1083.82 123.924 1086.03 125.423C1088.34 126.923 1089.85 128.797 1090.55 131.046C1091.36 133.238 1091.76 135.372 1091.76 137.448C1091.76 144.714 1090.4 151.895 1087.69 158.988C1084.98 166.023 1081.81 173.06 1078.19 180.096C1074.58 187.074 1071.41 194.081 1068.7 201.118C1065.99 208.153 1064.63 215.305 1064.63 222.571C1064.63 227.185 1065.84 231.596 1068.25 235.807C1070.66 239.958 1075.23 243.478 1081.96 246.361C1079.95 248.494 1077.14 250.513 1073.53 252.416C1070.01 254.261 1065.94 255.184 1061.32 255.184C1051.37 255.184 1042.23 253.656 1033.89 250.599C1025.55 247.485 1017.82 243.304 1010.68 238.056C1003.54 232.75 996.866 226.81 990.638 220.236C984.508 213.604 978.631 206.77 973.004 199.733C967.377 192.697 961.851 185.863 956.427 179.231C951.102 172.598 945.726 166.601 940.3 161.237C934.876 155.874 929.199 151.635 923.271 148.521C920.457 156.595 916.841 164.726 912.421 172.916C908.099 181.048 904.232 189.266 900.816 197.571C897.399 205.876 895.691 214.238 895.691 222.657C895.691 227.099 896.848 231.424 899.159 235.633C901.468 239.843 905.84 243.39 912.27 246.274C910.763 247.889 908.402 249.793 905.187 251.984C901.971 254.118 898.556 255.184 894.939 255.184ZM1138.33 183.383C1139.13 183.383 1140.19 183.383 1141.49 183.383C1143.6 178.135 1145.56 172.858 1147.37 167.553C1149.18 162.189 1150.08 156.854 1150.08 151.548C1150.08 148.319 1149.58 145.118 1148.58 141.946C1147.67 138.717 1146.11 135.545 1143.9 132.43L1143 131.133C1143.5 130.96 1144.16 130.758 1144.96 130.527C1152.19 128.509 1159.83 127.326 1167.87 126.98C1175.9 126.577 1183.84 126.375 1191.68 126.375C1204.54 126.375 1217.35 126.432 1230.11 126.548C1242.87 126.663 1255.63 126.721 1268.39 126.721C1271.6 126.721 1275.42 126.721 1279.84 126.721C1284.36 126.663 1288.78 126.548 1293.1 126.375C1297.52 126.202 1301.19 125.885 1304.1 125.423C1303 132.228 1299.48 136.9 1293.55 139.437C1287.63 141.975 1278.99 143.244 1267.63 143.244C1253.16 143.244 1238.69 142.898 1224.23 142.206C1209.86 141.514 1195.5 140.706 1181.13 139.784C1180.72 147.281 1178.92 154.634 1175.7 161.842C1172.59 169.051 1169.52 176.233 1166.51 183.383C1176.66 183.325 1187.26 183.21 1198.31 183.038C1209.46 182.864 1219.96 182.576 1229.81 182.172C1239.75 181.711 1247.99 181.077 1254.52 180.269C1255.23 183.672 1254.42 186.353 1252.11 188.314C1249.8 190.274 1246.58 191.745 1242.47 192.726C1238.34 193.649 1233.87 194.254 1229.05 194.543C1224.33 194.773 1219.81 194.888 1215.49 194.888C1205.65 194.888 1196.3 194.888 1187.46 194.888C1178.61 194.888 1170.13 194.888 1161.99 194.888C1159.58 201.118 1157.27 207.404 1155.06 213.747C1152.85 220.033 1151.74 226.319 1151.74 232.607C1151.74 234.739 1151.84 236.673 1152.04 238.402C1164.5 238.69 1176.91 238.893 1189.27 239.008C1201.73 239.065 1214.18 239.094 1226.64 239.094C1229.95 239.094 1234.23 239.094 1239.45 239.094C1244.78 239.094 1250.35 239.037 1256.18 238.921C1262 238.805 1267.43 238.604 1272.45 238.316C1277.58 238.027 1281.55 237.623 1284.36 237.104C1283.36 242.871 1280.6 247.081 1276.07 249.735C1271.65 252.33 1265.97 253.974 1259.04 254.665C1252.11 255.358 1244.42 255.703 1235.99 255.703C1229.15 255.703 1220.92 255.588 1211.27 255.357C1201.63 255.127 1192.03 254.753 1182.48 254.234C1172.94 253.713 1164.86 253.051 1158.22 252.244C1153 254.32 1147.52 255.357 1141.79 255.357C1133.56 255.357 1127.98 253.83 1125.06 250.773C1122.26 247.716 1120.85 244.141 1120.85 240.046C1120.85 232.375 1122.6 224.791 1126.12 217.294C1129.64 209.796 1133.1 202.357 1136.52 194.976C1130.29 195.033 1124.36 195.091 1118.74 195.148C1118.64 194.744 1118.58 194.197 1118.58 193.505C1118.58 190.274 1120.59 187.795 1124.61 186.064C1128.63 184.277 1133.21 183.383 1138.33 183.383ZM1393.02 255.79C1386.19 255.79 1378.65 255.646 1370.41 255.357C1362.28 255.127 1354.44 254.376 1346.91 253.108C1339.47 251.84 1333.34 249.735 1328.52 246.793C1323.7 243.794 1321.28 239.613 1321.28 234.25C1321.28 227.329 1322.54 220.524 1325.05 213.834C1327.66 207.144 1330.68 200.484 1334.1 193.85C1337.51 187.16 1340.47 180.471 1342.99 173.781C1345.6 167.034 1346.91 160.199 1346.91 153.279C1346.91 148.838 1345.95 144.484 1344.04 140.216C1342.23 135.948 1339.57 131.854 1336.05 127.932C1350.42 126.836 1364.79 126 1379.15 125.423C1393.62 124.789 1408.09 124.472 1422.56 124.472C1434.01 124.472 1445.82 124.818 1457.97 125.51C1470.13 126.202 1481.83 127.499 1493.08 129.403C1504.45 131.306 1514.59 134.045 1523.54 137.621C1532.58 141.196 1539.7 145.839 1544.93 151.548C1550.25 157.258 1552.92 164.295 1552.92 172.657C1552.92 185.459 1548.55 196.994 1539.81 207.26C1531.16 217.467 1519.31 226.204 1504.24 233.471C1489.27 240.68 1472.19 246.217 1453 250.08C1433.91 253.887 1413.92 255.79 1393.02 255.79ZM1379.31 138.226C1378.4 145.089 1376.44 151.952 1373.43 158.815C1370.52 165.621 1367.35 172.454 1363.94 179.317C1360.52 186.181 1357.55 193.072 1355.04 199.992C1352.63 206.913 1351.43 213.92 1351.43 221.014C1351.43 227.531 1353.84 233.672 1358.66 239.439C1365.49 240.536 1372.47 241.373 1379.61 241.948C1386.84 242.467 1394.02 242.727 1401.16 242.727C1416.73 242.727 1431.85 241.459 1446.52 238.921C1461.19 236.326 1474.4 232.492 1486.16 227.415C1497.92 222.282 1507.25 215.91 1514.19 208.297C1521.12 200.685 1524.58 191.86 1524.58 181.826C1524.58 172.713 1521.73 165.217 1516 159.334C1510.38 153.394 1502.69 148.78 1492.93 145.493C1483.28 142.148 1472.39 139.812 1460.23 138.486C1448.18 137.159 1435.67 136.496 1422.71 136.496C1415.38 136.496 1408.04 136.669 1400.71 137.015C1393.37 137.304 1386.24 137.707 1379.31 138.226Z" fill="url(#paint0_linear_1157_55)"/>
<path d="M353.481 256.361C353.701 285.517 332.1 304.81 325.668 310.51C309.33 325.087 291.312 329.911 281.371 331.701C277.058 332.469 264.156 335.172 247.454 333.601C229.836 331.919 217.044 326.585 209.772 323.479C200.743 319.608 194.531 315.771 185.978 310.545C182.907 308.647 172.966 302.471 160.284 292.643C150.745 285.262 143.947 279.088 140.986 276.383C98.7356 238.057 47.2383 190.924 47.2383 190.924L139.597 110.396C151.841 98.4487 163.026 89.4605 171.651 83.0665C186.636 71.9593 198.442 63.3366 216.424 56.6868C230.823 51.3524 242.629 49.7084 247.052 49.1602C261.232 47.443 273.293 48.3565 281.919 49.6352C295.77 53.8004 320.77 63.702 338.46 87.3049C342.591 92.8219 348.401 100.75 351.18 112.735C352.093 116.644 357.246 140.503 341.749 162.17C330.053 178.537 313.606 183.871 308.308 185.371V187.087C307.978 185.224 307.54 183.726 307.101 182.629L288.242 150.587H239.486L238.317 95.4891C228.74 88.4375 219.165 81.3493 209.588 74.2977C207.871 73.4209 204.252 71.8498 199.464 71.9593C195.079 72.0324 191.752 73.4574 190.035 74.2977L157.981 96.6584V150.587H106.411C99.6493 161.986 92.8878 173.35 86.1628 184.75C85.5781 185.918 84.5181 188.366 84.5181 191.582C84.5181 194.797 85.5781 197.245 86.1628 198.414L106.411 230.676L159.187 230.894V289.062C170.005 296.223 180.862 303.347 191.68 310.51C193.288 311.386 196.687 313.066 201.329 313.103C206.263 313.176 209.88 311.423 211.452 310.51L239.705 289.536V231.152H287.987C294.345 220.628 300.705 210.106 307.064 199.582C307.65 197.975 308.052 196.44 308.27 195.053V196.185C313.752 198.011 332.174 204.88 344.088 224.318C353.079 239.007 353.481 252.963 353.519 256.361H353.481Z" fill="url(#paint1_linear_1157_55)"/>
<path d="M365.87 101.841C366.858 101.111 354.394 79.1155 334.073 58.5087C302.275 26.3197 267.006 13.5682 256.334 9.98754C197.489 -9.59624 147.272 5.12813 133.858 9.51253C112.404 16.4912 78.5964 31.6539 49.5399 64.1354C39.0504 75.8272 -1.59194 124.166 0.491338 196.51C2.24563 258.036 33.8605 299.361 43.8384 311.417C93.1428 371.083 161.563 378.828 177.168 380.18C185.867 380.912 255.164 385.844 313.313 340.61C344.233 316.57 362.581 285.659 361.595 284.782C360.718 284.016 343.721 308.167 317.554 327.421C311.706 331.696 256.078 371.448 189.888 363.701C117.156 355.19 39.0504 290.263 35.1397 198.628C30.9 99.9051 115.218 28.2927 192.263 18.0257C195.59 17.5873 262.254 9.62223 316.164 49.1188C346.573 71.4063 364.701 102.755 365.87 101.878V101.841Z" fill="url(#paint2_linear_1157_55)"/>
<path d="M159.154 230.797L106.377 230.579L86.129 198.317C85.5078 197.148 84.4844 194.699 84.4844 191.485C84.4844 188.269 85.5444 185.821 86.129 184.651C92.8906 173.252 99.6522 161.889 106.377 150.489H157.948V96.561L190.001 74.2003C191.647 73.3235 194.862 71.935 199.138 71.8255C203.633 71.6792 207.07 73.0311 208.751 73.835C218.582 81.0327 228.415 88.2306 238.282 95.3917L239.451 150.489H288.207L307.067 182.532C307.799 184.287 308.749 187.282 308.749 191.119C308.749 194.846 307.799 197.769 307.067 199.485C300.707 210.009 294.349 220.531 287.989 231.053H239.707V289.439L211.456 310.411C209.847 311.326 206.522 312.897 202.026 313.006C197.019 313.116 193.29 311.326 191.683 310.411C180.864 303.25 170.008 296.126 159.19 288.965V230.797H159.154Z" fill="white"/>
<defs>
<linearGradient id="paint0_linear_1157_55" x1="964.19" y1="123.174" x2="964.19" y2="257.174" gradientUnits="userSpaceOnUse">
<stop stop-color="#023D8B"/>
<stop offset="1" stop-color="#0485D3"/>
</linearGradient>
<linearGradient id="paint1_linear_1157_55" x1="200.377" y1="351.065" x2="200.377" y2="65.1634" gradientUnits="userSpaceOnUse">
<stop stop-color="#058BD9"/>
<stop offset="0.05" stop-color="#0478C6"/>
<stop offset="0.14" stop-color="#0362B0"/>
<stop offset="0.24" stop-color="#02519F"/>
<stop offset="0.36" stop-color="#024593"/>
<stop offset="0.53" stop-color="#023E8C"/>
<stop offset="1" stop-color="#023D8B"/>
</linearGradient>
<linearGradient id="paint2_linear_1157_55" x1="183.162" y1="380.691" x2="183.162" y2="0.0860616" gradientUnits="userSpaceOnUse">
<stop stop-color="#058BD9"/>
<stop offset="0.03" stop-color="#0484D2"/>
<stop offset="0.16" stop-color="#036AB8"/>
<stop offset="0.31" stop-color="#0256A4"/>
<stop offset="0.47" stop-color="#024795"/>
<stop offset="0.67" stop-color="#023F8D"/>
<stop offset="1" stop-color="#023D8B"/>
</linearGradient>
</defs>
</svg>
