<svg width="367" height="382" viewBox="0 0 367 382" fill="none" xmlns="http://www.w3.org/2000/svg">
<path d="M354.005 257.083C354.225 286.239 332.624 305.532 326.192 311.232C309.853 325.809 291.835 330.633 281.894 332.422C277.582 333.19 264.68 335.893 247.977 334.322C230.359 332.641 217.567 327.307 210.296 324.201C201.267 320.329 195.055 316.493 186.501 311.267C183.431 309.368 173.49 303.192 160.808 293.365C151.269 285.984 144.47 279.81 141.51 277.105C99.2591 238.779 47.7617 191.646 47.7617 191.646L140.121 111.118C152.365 99.1705 163.549 90.1823 172.174 83.7883C187.159 72.681 198.965 64.0583 216.947 57.4086C231.347 52.0742 243.153 50.4301 247.575 49.882C261.755 48.1648 273.817 49.0782 282.442 50.357C296.294 54.5222 321.293 64.4238 338.984 88.0266C343.114 93.5437 348.924 101.472 351.703 113.456C352.617 117.366 357.769 141.224 342.273 162.892C330.576 179.259 314.13 184.593 308.831 186.092V187.809C308.502 185.946 308.064 184.448 307.624 183.351L288.766 151.309H240.01L238.84 96.2109C229.264 89.1593 219.688 82.0711 210.112 75.0195C208.394 74.1426 204.776 72.5715 199.987 72.6811C195.602 72.7542 192.276 74.1792 190.558 75.0195L158.505 97.3801V151.309H106.934C100.173 162.708 93.4112 174.071 86.6862 185.471C86.1016 186.64 85.0415 189.088 85.0415 192.303C85.0415 195.519 86.1016 197.967 86.6862 199.136L106.934 231.397L159.71 231.616V289.784C170.529 296.945 181.385 304.069 192.204 311.232C193.811 312.108 197.21 313.788 201.852 313.825C206.787 313.898 210.404 312.145 211.975 311.232L240.228 290.258V231.873H288.51C294.868 221.35 301.228 210.828 307.588 200.304C308.173 198.696 308.575 197.162 308.794 195.775V196.907C314.276 198.733 332.698 205.602 344.612 225.04C353.603 239.729 354.005 253.685 354.042 257.083H354.005Z" fill="url(#paint0_linear_1156_50)"/>
<path d="M366.394 102.563C367.381 101.833 354.917 79.8373 334.596 59.2304C302.798 27.0415 267.53 14.29 256.857 10.7093C198.013 -8.87447 147.795 5.8499 134.382 10.2343C112.928 17.213 79.1198 32.3757 50.0634 64.8572C39.5738 76.549 -1.0685 124.887 1.01478 197.231C2.76907 258.758 34.3839 300.083 44.3618 312.139C93.6663 371.804 162.086 379.55 177.692 380.902C186.391 381.633 255.688 386.565 313.837 341.332C344.757 317.291 363.105 286.38 362.119 285.504C361.241 284.737 344.245 308.888 318.077 328.142C312.229 332.418 256.601 372.17 190.411 364.423C117.679 355.911 39.5738 290.985 35.6631 199.35C31.4235 100.627 115.742 29.0144 192.787 18.7475C196.113 18.3091 262.778 10.344 316.688 49.8405C347.096 72.128 365.224 103.477 366.394 102.6V102.563Z" fill="url(#paint1_linear_1156_50)"/>
<defs>
<linearGradient id="paint0_linear_1156_50" x1="200.901" y1="351.787" x2="200.901" y2="65.8852" gradientUnits="userSpaceOnUse">
<stop stop-color="#058BD9"/>
<stop offset="0.05" stop-color="#0478C6"/>
<stop offset="0.14" stop-color="#0362B0"/>
<stop offset="0.24" stop-color="#02519F"/>
<stop offset="0.36" stop-color="#024593"/>
<stop offset="0.53" stop-color="#023E8C"/>
<stop offset="1" stop-color="#023D8B"/>
</linearGradient>
<linearGradient id="paint1_linear_1156_50" x1="183.686" y1="381.413" x2="183.686" y2="0.807833" gradientUnits="userSpaceOnUse">
<stop stop-color="#058BD9"/>
<stop offset="0.03" stop-color="#0484D2"/>
<stop offset="0.16" stop-color="#036AB8"/>
<stop offset="0.31" stop-color="#0256A4"/>
<stop offset="0.47" stop-color="#024795"/>
<stop offset="0.67" stop-color="#023F8D"/>
<stop offset="1" stop-color="#023D8B"/>
</linearGradient>
</defs>
</svg>
